<svg width="49" height="24" viewBox="0 0 49 24" fill="none" xmlns="http://www.w3.org/2000/svg">
<path d="M48.9975 19.977H46.486V24H40.3019V19.977H33.404L30.5012 14.951L38.5189 0.538918H45.0557L37.9259 13.8442H40.4905V10.2596H46.486V13.8442H48.9975V19.977Z" fill="#ABCF37"/>
<path d="M13.2391 6.41525C14.8747 7.25972 16.1629 8.50477 17.0723 10.1174C17.1019 10.1712 17.1284 10.2262 17.1564 10.2804C17.6741 8.62452 19.1399 6.21698 21.4344 6.1109C22.0992 6.07953 22.7582 6.39956 23.1105 6.72161C23.4637 7.04767 23.638 7.50043 23.638 8.08178C23.638 8.5479 23.5276 9.03021 23.3054 9.52117C23.0837 10.014 22.6405 10.6059 21.9781 11.2996L18.3705 15.004C18.3733 15.1599 18.3804 15.3151 18.3804 15.4714V23.0719V24H32.2784L28.7201 17.8652H24.1517L27.1702 14.8175C28.5978 13.3878 29.5594 12.1083 30.0525 10.9803C30.5458 9.85186 30.7916 8.6395 30.7916 7.34217C30.7916 5.89021 30.4306 4.60665 29.7066 3.4893C28.9825 2.37195 27.9756 1.51179 26.6881 0.908119C25.3986 0.305254 23.9194 0.00281525 22.2491 0.00281525C20.0562 0.00281525 18.1832 0.486736 16.6352 1.46192C14.991 2.49682 13.5832 4.31799 12.7531 6.1847C12.9176 6.25941 13.0781 6.332 13.2391 6.41525Z" fill="#ABCF37"/>
<path d="M7.18513 20.0725C8.26902 20.0725 9.13628 19.7614 9.7893 19.1456C10.4396 18.525 10.7671 17.6512 10.7671 16.5287C10.7671 15.4038 10.4396 14.5315 9.7893 13.9141C9.13628 13.2955 8.26902 12.984 7.18513 12.984H5.06116V20.0725H7.18513ZM0 9.05655H7.3982C9.07 9.05655 10.5457 9.3602 11.8261 9.96377C13.1069 10.5699 14.1 11.437 14.8083 12.5591C15.5137 13.6843 15.8689 15.0048 15.8689 16.5287C15.8689 18.0518 15.5137 19.3753 14.8083 20.4974C14.1 21.6219 13.1069 22.4879 11.8261 23.092C10.5457 23.6976 9.07 24 7.3982 24H0V9.05655Z" fill="#8D60B5"/>
</svg>
