<svg width="340" height="250" viewBox="0 0 340 250" fill="none" xmlns="http://www.w3.org/2000/svg">
<path d="M71.558 177.913C84.2944 177.886 97.056 173.607 109.863 165.064C108.287 177.058 109.513 188.164 113.551 198.373C117.59 208.592 124.542 217.384 134.405 224.718C151.559 237.493 170.117 240.361 190.077 233.313C210.038 226.265 229.565 209.909 248.664 184.287L327.824 77.8113L279.035 41.4745L204.918 141.14C196.423 152.578 186.938 154.4 176.475 146.615C166.412 139.131 165.655 129.674 174.171 118.234L174.724 117.491L128.588 83.1332L121.215 93.0309C112.689 104.471 103.104 106.218 92.4628 98.2924C81.422 90.0661 80.1443 80.2345 88.6719 68.8044L96.0444 58.9067L47.2443 22.5604L37.452 35.709C17.4824 62.5172 7.39608 87.283 7.20089 109.975C7.0057 132.666 16.1731 150.91 34.7038 164.718C46.5423 173.524 58.819 177.91 71.558 177.913Z" fill="#9863AE"/>
</svg>
