<svg width="276" height="273" viewBox="0 0 276 273" fill="none" xmlns="http://www.w3.org/2000/svg">
<path d="M98.1744 116.144C95.3727 122.719 94.4979 129.826 95.5398 137.449C96.5747 145.078 99.7715 152.597 105.101 159.994C110.436 167.398 116.55 172.804 123.464 176.208C130.365 179.61 137.378 181.023 144.508 180.454C151.625 179.883 158.257 177.389 164.406 172.958C170.555 168.528 175.021 163.027 177.823 156.451C180.612 149.874 181.492 142.774 180.45 135.151C179.41 127.515 176.219 120.004 170.884 112.599C165.554 105.202 159.435 99.7893 152.526 96.3925C145.625 92.9907 138.607 91.5706 131.489 92.1414C124.36 92.7101 117.733 95.2116 111.584 99.6418C105.435 104.072 100.964 109.566 98.1744 116.144ZM132.384 38.8286C149.68 36.3393 166.093 38.3564 181.618 44.8849C197.149 51.4083 210.192 62.0089 220.754 76.6694C231.322 91.337 237.243 107.058 238.519 123.862C239.796 140.655 236.513 156.863 228.671 172.474C220.827 188.097 209.021 201.6 193.236 212.973C177.45 224.346 160.904 231.27 143.608 233.76C126.31 236.261 109.897 234.244 94.3723 227.715C78.8428 221.18 65.8055 210.586 55.2379 195.919C44.6755 181.258 38.7493 165.531 37.4715 148.738C36.1937 131.945 39.4768 115.737 47.3207 100.114C55.1577 84.4958 66.969 71.0002 82.7546 59.6272C98.5402 48.2541 115.081 41.3229 132.384 38.8286Z" fill="#9863AE"/>
</svg>
