<svg width="252" height="196" viewBox="0 0 252 196" fill="none" xmlns="http://www.w3.org/2000/svg">
<path d="M206.335 31.3211L112.546 125.399C104.947 133.031 97.3044 136.882 89.6263 136.944C81.9482 137.023 74.8938 133.815 68.4368 127.347C61.9886 120.869 58.7996 113.784 58.8611 106.09C58.9314 98.3962 62.7705 90.7202 70.3695 83.0882L107.539 45.8096L61.8744 0L28.5792 33.401C15.2962 46.7261 6.65172 61.0206 2.65454 76.3022C-1.34265 91.5662 -0.824335 106.769 4.2007 121.909C9.23452 137.041 18.3182 151.221 31.4782 164.414C44.6382 177.616 58.7645 186.737 73.8572 191.778C88.9499 196.828 104.104 197.348 119.329 193.338C134.553 189.319 148.802 180.656 162.085 167.331L252 77.1307" fill="#9863AE"/>
</svg>
