<svg width="264" height="281" viewBox="0 0 264 281" fill="none" xmlns="http://www.w3.org/2000/svg">
<path d="M10.8323 104.74L76.9824 130.349C82.3707 124.651 89.3277 119.858 97.9628 116.049C113.023 109.398 126.911 108.323 139.598 112.848C152.286 117.373 161.721 126.599 167.881 140.539C175.199 157.117 173.84 174.932 163.809 194.012L219.994 219.498C228.474 204.055 232.767 187.277 232.899 169.219C233.019 151.157 228.834 132.513 220.35 113.302C211.109 92.3982 198.408 75.4935 182.236 62.6041C166.068 49.703 148.017 41.9655 128.087 39.4186C108.157 36.8523 88.2059 39.9787 68.2409 48.7937C48.2645 57.6244 32.5208 70.2712 20.9983 86.7305C16.9775 92.4724 13.6148 98.4881 10.8323 104.74Z" fill="#9863AE"/>
</svg>
