<svg width="25" height="22" viewBox="0 0 25 22" fill="none" xmlns="http://www.w3.org/2000/svg">
<path fill-rule="evenodd" clip-rule="evenodd" d="M19.0544 1.44992C19.3023 0.95636 19.1031 0.355349 18.6095 0.107525C18.1159 -0.1403 17.5149 0.0589083 17.2671 0.552468L7.44873 20.1064C7.2009 20.6 7.40011 21.201 7.89367 21.4488C8.38723 21.6967 8.98824 21.4974 9.23606 21.0039L19.0544 1.44992ZM6.24985 2.0001C6.24985 1.44782 5.80214 1.0001 5.24985 1.0001C4.69757 1.0001 4.24985 1.44782 4.24985 2.0001V5.25743H1C0.447715 5.25743 0 5.70515 0 6.25743C0 6.80972 0.447715 7.25743 1 7.25743H4.24986V10.5073C4.24986 11.0596 4.69757 11.5073 5.24986 11.5073C5.80214 11.5073 6.24986 11.0596 6.24986 10.5073V7.25743H9.50718C10.0595 7.25743 10.5072 6.80972 10.5072 6.25743C10.5072 5.70515 10.0595 5.25743 9.50718 5.25743H6.24985V2.0001ZM24.814 17.0001C24.814 17.5524 24.3663 18.0001 23.814 18.0001H17C16.4477 18.0001 16 17.5524 16 17.0001C16 16.4478 16.4477 16.0001 17 16.0001H23.814C24.3663 16.0001 24.814 16.4478 24.814 17.0001Z" fill="white"/>
</svg>
