<svg width="25" height="23" viewBox="0 0 25 23" fill="none" xmlns="http://www.w3.org/2000/svg">
<path fill-rule="evenodd" clip-rule="evenodd" d="M19.1896 2.45371C19.435 1.95893 19.2348 1.35494 18.7425 1.10465C18.2501 0.854368 17.6521 1.05257 17.4067 1.54735L7.49275 21.5381C7.24738 22.0329 7.44756 22.6369 7.93988 22.8871C8.43219 23.1374 9.03021 22.9392 9.27559 22.4444L19.1896 2.45371ZM6.28419 3.04113C6.28419 2.48884 5.83647 2.04113 5.28419 2.04113C4.7319 2.04113 4.28419 2.48884 4.28419 3.04113V6.38634H1C0.447715 6.38634 0 6.83406 0 7.38634C0 7.93863 0.447715 8.38634 1 8.38634H4.28419V11.7242C4.28419 12.2765 4.7319 12.7242 5.28419 12.7242C5.83647 12.7242 6.28419 12.2765 6.28419 11.7242V8.38634H9.57606C10.1283 8.38634 10.5761 7.93863 10.5761 7.38634C10.5761 6.83406 10.1283 6.38634 9.57606 6.38634H6.28419V3.04113ZM24.9983 18.3511C24.9983 18.9034 24.5506 19.3511 23.9983 19.3511H17.1292C16.5769 19.3511 16.1292 18.9034 16.1292 18.3511C16.1292 17.7988 16.5769 17.3511 17.1292 17.3511H23.9983C24.5506 17.3511 24.9983 17.7988 24.9983 18.3511Z" fill="white"/>
</svg>
