<svg width="17" height="17" viewBox="0 0 17 17" fill="none" xmlns="http://www.w3.org/2000/svg">
<path fill-rule="evenodd" clip-rule="evenodd" d="M15.3959 1.24124C15.5959 1.05079 15.9124 1.05851 16.1028 1.25847C16.2933 1.45843 16.2856 1.77492 16.0856 1.96536L9.20642 8.51722L15.7583 15.3964C15.9487 15.5964 15.941 15.9129 15.741 16.1033C15.5411 16.2938 15.2246 16.286 15.0341 16.0861L8.4823 9.20688L1.60311 15.7587C1.40315 15.9492 1.08666 15.9415 0.896212 15.7415C0.705766 15.5415 0.713479 15.2251 0.913441 15.0346L7.79263 8.48276L1.24078 1.60357C1.05034 1.4036 1.05805 1.08712 1.25801 0.896669C1.45797 0.706223 1.77446 0.713936 1.96491 0.913898L8.51676 7.79309L15.3959 1.24124Z" fill="black"/>
</svg>
