<svg width="24" height="24" viewBox="0 0 24 24" fill="none" xmlns="http://www.w3.org/2000/svg">
<path d="M14 2H6C5.46957 2 4.96086 2.21071 4.58579 2.58579C4.21071 2.96086 4 3.46957 4 4V20C4 20.5304 4.21071 21.0391 4.58579 21.4142C4.96086 21.7893 5.46957 22 6 22H18C18.5304 22 19.0391 21.7893 19.4142 21.4142C19.7893 21.0391 20 20.5304 20 20V8L14 2Z" stroke="white" stroke-width="2" stroke-linecap="round" stroke-linejoin="round"/>
<path d="M14 2V8H20" stroke="white" stroke-width="2" stroke-linecap="round" stroke-linejoin="round"/>
<path d="M8.97 12.5C9.29333 12.5 9.575 12.5533 9.815 12.66C10.055 12.7667 10.24 12.92 10.37 13.12C10.5 13.32 10.565 13.5533 10.565 13.82C10.565 14.0867 10.5 14.32 10.37 14.52C10.24 14.72 10.055 14.8733 9.815 14.98C9.575 15.0867 9.29333 15.14 8.97 15.14H8.465V16H7.285V12.5H8.97ZM8.895 14.23C9.055 14.23 9.175 14.195 9.255 14.125C9.335 14.0517 9.375 13.95 9.375 13.82C9.375 13.69 9.335 13.59 9.255 13.52C9.175 13.4467 9.055 13.41 8.895 13.41H8.465V14.23H8.895ZM10.952 12.5H12.677C13.067 12.5 13.4103 12.5717 13.707 12.715C14.007 12.855 14.2387 13.0567 14.402 13.32C14.5687 13.5833 14.652 13.8933 14.652 14.25C14.652 14.6067 14.5687 14.9167 14.402 15.18C14.2387 15.4433 14.007 15.6467 13.707 15.79C13.4103 15.93 13.067 16 12.677 16H10.952V12.5ZM12.627 15.08C12.8803 15.08 13.082 15.0083 13.232 14.865C13.3853 14.7183 13.462 14.5133 13.462 14.25C13.462 13.9867 13.3853 13.7833 13.232 13.64C13.082 13.4933 12.8803 13.42 12.627 13.42H12.132V15.08H12.627ZM16.2629 13.39V13.99H17.7229V14.88H16.2629V16H15.0829V12.5H17.9279V13.39H16.2629Z" fill="white"/>
</svg>
