<svg width="25" height="23" viewBox="0 0 25 23" fill="none" xmlns="http://www.w3.org/2000/svg">
<path fill-rule="evenodd" clip-rule="evenodd" d="M19.1896 2.45347C19.435 1.95869 19.2348 1.35469 18.7425 1.10441C18.2501 0.854124 17.6521 1.05233 17.4067 1.54711L7.49275 21.5378C7.24738 22.0326 7.44756 22.6366 7.93988 22.8869C8.43219 23.1372 9.03021 22.939 9.27559 22.4442L19.1896 2.45347ZM6.28419 3.04088C6.28419 2.4886 5.83647 2.04088 5.28419 2.04088C4.7319 2.04088 4.28419 2.4886 4.28419 3.04088V6.3861H1C0.447715 6.3861 0 6.83381 0 7.3861C0 7.93838 0.447715 8.3861 1 8.3861H4.28419V11.7239C4.28419 12.2762 4.7319 12.7239 5.28419 12.7239C5.83647 12.7239 6.28419 12.2762 6.28419 11.7239V8.3861H9.57606C10.1283 8.3861 10.5761 7.93838 10.5761 7.3861C10.5761 6.83381 10.1283 6.3861 9.57606 6.3861H6.28419V3.04088ZM24.9983 18.3508C24.9983 18.9031 24.5506 19.3508 23.9983 19.3508H17.1292C16.5769 19.3508 16.1292 18.9031 16.1292 18.3508C16.1292 17.7985 16.5769 17.3508 17.1292 17.3508H23.9983C24.5506 17.3508 24.9983 17.7985 24.9983 18.3508Z" fill="black"/>
</svg>
