<svg width="24" height="24" viewBox="0 0 24 24" fill="none" xmlns="http://www.w3.org/2000/svg">
<g opacity="0.5">
<path d="M1.98088 15.6961C2.44285 13.3859 3.51687 11.4732 5.09606 10.1388C6.67093 8.80805 8.80982 8 11.5003 8C14.2202 8 16.2255 8.6994 17.7196 9.95345C19.2261 11.218 20.3189 13.1353 21.0355 15.7631C21.7679 18.4487 21.5809 20.0565 20.4901 21.0849C19.9023 21.6391 18.9579 22.1269 17.4724 22.4711C15.99 22.8147 14.0354 23 11.5003 23C8.94672 23 6.99206 22.8752 5.5118 22.6025C4.02355 22.3283 3.11402 21.9215 2.55812 21.435C1.53254 20.5374 1.32271 18.9877 1.98088 15.6961ZM1.98088 15.6961L1.00029 15.5L1.98088 15.6961Z" stroke="black" stroke-width="2"/>
<path d="M11 8L4.93782 2L17.0622 2L11 8Z" stroke="black" stroke-width="2" stroke-linecap="round" stroke-linejoin="round"/>
<line x1="6" y1="7" x2="16" y2="7" stroke="black" stroke-width="2" stroke-linecap="round"/>
</g>
</svg>
