<svg width="25" height="24" viewBox="0 0 25 24" fill="none" xmlns="http://www.w3.org/2000/svg">
  <g opacity="0.5">
    <rect x="2.5" y="2" width="20" height="20" stroke="white" stroke-width="2" stroke-linecap="round" stroke-linejoin="round"/>
    <path d="M10.01 14L10 12.145L9.1 13.655H8.66L7.765 12.195V14H6.85V10.5H7.665L8.895 12.52L10.095 10.5H10.91L10.92 14H10.01ZM13.9655 13.32H12.4855L12.2105 14H11.2005L12.7455 10.5H13.7205L15.2705 14H14.2405L13.9655 13.32ZM13.6755 12.59L13.2255 11.47L12.7755 12.59H13.6755ZM17.5707 14L16.8457 12.915L16.1307 14H15.0007L16.2757 12.23L15.0557 10.5H16.1707L16.8707 11.51L17.5607 10.5H18.6307L17.4107 12.19L18.7107 14H17.5707Z" fill="white"/>
  </g>
</svg>
