<svg width="25" height="24" viewBox="0 0 25 24" fill="none" xmlns="http://www.w3.org/2000/svg">
<g opacity="0.5">
<path fill-rule="evenodd" clip-rule="evenodd" d="M1.3457 16.5001C1.3457 15.9478 1.79342 15.5001 2.3457 15.5001H22.6534C23.2057 15.5001 23.6534 15.9478 23.6534 16.5001V22.1538C23.6534 22.7061 23.2057 23.1538 22.6534 23.1538H18.6726C18.1203 23.1538 17.6726 22.7061 17.6726 22.1538V21.1681H15V22.1538C15 22.7061 14.5523 23.1538 14 23.1538H11.3072H10.4417C10.1712 23.1538 9.9122 23.0442 9.72385 22.85C9.53551 22.6558 9.4339 22.3935 9.44222 22.1231L9.46829 21.2755H7.32647V22.1538C7.32647 22.7061 6.87876 23.1538 6.32647 23.1538H2.3457C1.79342 23.1538 1.3457 22.7061 1.3457 22.1538V16.5001ZM5.32647 21.1538V20.2755C5.32647 19.7232 5.77419 19.2755 6.32647 19.2755H10.4995C10.7701 19.2755 11.0291 19.3851 11.2174 19.5793C11.4057 19.7736 11.5074 20.0358 11.499 20.3062L11.473 21.1538H13V20.1681C13 19.6159 13.4477 19.1681 14 19.1681H18.6726C19.2249 19.1681 19.6726 19.6159 19.6726 20.1681V21.1538H21.6534V17.5001H3.3457V21.1538H5.32647Z" fill="black"/>
<path d="M12 2V11M12 11L8 7.5M12 11L16 7.5" stroke="black" stroke-width="2" stroke-linecap="round" stroke-linejoin="round"/>
</g>
</svg>
